<svg width="74" height="74" viewBox="0 0 74 74" fill="none" xmlns="http://www.w3.org/2000/svg">
<rect x="10.9823" y="12.5859" width="51.83" height="50.37" fill="white"/>
<path d="M45.8791 6.25928H27.2172C10.1711 6.25928 6.1156 10.3148 6.1156 27.3291V45.9911C6.1156 63.0369 10.1395 67.0926 27.1854 67.0926H45.8474C62.8934 67.0926 66.9489 63.0687 66.9489 46.0226V27.3608C66.9489 10.3148 62.925 6.25928 45.8791 6.25928ZM55.2258 49.6663H50.7901C49.1109 49.6663 48.6039 48.3039 45.594 45.2939C42.9641 42.7593 41.8552 42.4424 41.1898 42.4424C40.2711 42.4424 40.0174 42.6958 40.0174 43.9632V47.9554C40.0174 49.0327 39.669 49.6663 36.8492 49.6663C34.1129 49.4825 31.4593 48.6512 29.1072 47.241C26.755 45.8308 24.7715 43.8821 23.32 41.5552C19.8741 37.2661 17.4765 32.2323 16.3179 26.8538C16.3179 26.1885 16.5713 25.5864 17.8388 25.5864H22.2745C23.4151 25.5864 23.827 26.0934 24.2705 27.2658C26.425 33.6025 30.1005 39.1155 31.5896 39.1155C32.1599 39.1155 32.4133 38.8621 32.4133 37.4364V30.9093C32.2232 27.9312 30.639 27.6776 30.639 26.6004C30.6599 26.3162 30.7907 26.0514 31.0037 25.862C31.2166 25.6727 31.495 25.5739 31.7797 25.5864H38.7502C39.7007 25.5864 40.0174 26.0617 40.0174 27.2023V36.0106C40.0174 36.9611 40.4294 37.2778 40.7146 37.2778C41.2849 37.2778 41.7284 36.9611 42.7739 35.9155C45.0208 33.1755 46.8566 30.1229 48.2237 26.8538C48.3632 26.4605 48.6277 26.1236 48.9767 25.8947C49.3257 25.6659 49.7401 25.5576 50.1565 25.5864H54.5922C55.9229 25.5864 56.208 26.2518 55.9229 27.2023C54.3089 30.8168 52.312 34.2477 49.9664 37.4364C49.4911 38.165 49.301 38.5452 49.9664 39.4007C50.4099 40.0661 51.9625 41.3651 53.008 42.6007C54.5288 44.1177 55.7916 45.8729 56.7466 47.797C57.1268 49.0327 56.4932 49.6663 55.2258 49.6663Z" fill="#2F2DFE"/>
</svg>
